<svg width="28" height="28" viewBox="0 0 28 28" fill="none" xmlns="http://www.w3.org/2000/svg">
<path d="M17.6 15.376C17.888 15.376 20.8 16.912 20.928 17.136C20.96 17.2 20.96 17.328 20.96 17.392C20.96 17.84 20.832 18.32 20.672 18.736C20.256 19.76 18.592 20.4 17.568 20.4C16.704 20.4 14.944 19.632 14.176 19.28C11.616 18.128 10.048 16.144 8.512 13.872C7.808 12.88 7.2 11.632 7.232 10.416V10.256C7.264 9.07203 7.712 8.24002 8.544 7.44002C8.832 7.18402 9.12 7.05603 9.472 7.05603C9.696 7.05603 9.92 7.08803 10.144 7.08803C10.624 7.08803 10.72 7.24803 10.88 7.69603C11.008 8.01603 11.936 10.448 11.936 10.608C11.936 11.312 10.688 12.08 10.688 12.464C10.688 12.56 10.72 12.656 10.784 12.752C11.168 13.584 11.936 14.544 12.608 15.184C13.44 15.984 14.304 16.496 15.296 17.008C15.424 17.072 15.552 17.136 15.712 17.136C16.224 17.136 17.12 15.376 17.6 15.376ZM13.952 24.848C20.16 24.848 25.184 19.824 25.184 13.648C25.184 7.47203 20.16 2.41603 13.952 2.41603C7.744 2.41603 2.752 7.47203 2.752 13.648C2.752 15.984 3.488 18.288 4.896 20.208L3.488 24.368L7.808 22.992C9.632 24.208 11.776 24.848 13.952 24.848ZM13.952 0.176025C21.408 0.176025 27.424 6.22403 27.424 13.648C27.424 21.072 21.408 27.12 13.952 27.12C11.712 27.12 9.44 26.544 7.456 25.424L0 27.824L2.432 20.592C1.152 18.512 0.512 16.08 0.512 13.648C0.512 6.22403 6.528 0.176025 13.952 0.176025Z" fill="#58BE00"/>
</svg>
