<svg width="32" height="23" viewBox="0 0 32 23" fill="none" xmlns="http://www.w3.org/2000/svg">
<path d="M31.3314 3.52049C30.9634 2.13475 29.8791 1.04338 28.5023 0.673008C26.0068 0 16 0 16 0C16 0 5.99339 0 3.49782 0.673008C2.12104 1.04344 1.0367 2.13475 0.668673 3.52049C0 6.03223 0 11.2727 0 11.2727C0 11.2727 0 16.5132 0.668673 19.025C1.0367 20.4107 2.12104 21.4566 3.49782 21.827C5.99339 22.5 16 22.5 16 22.5C16 22.5 26.0067 22.5 28.5023 21.827C29.8791 21.4566 30.9634 20.4107 31.3314 19.025C32.0001 16.5132 32.0001 11.2727 32.0001 11.2727C32.0001 11.2727 32.0001 6.03223 31.3314 3.52049ZM12.7273 16.0307V6.51475L21.0909 11.2729L12.7273 16.0307Z" fill="#58BE00"/>
</svg>
