<svg width="200" height="50" viewBox="0 0 200 50" fill="none" xmlns="http://www.w3.org/2000/svg">
<g clip-path="url(#clip0_3:3)">
<path d="M68.0984 4.73471V7.49816H55.1387V4.73471H68.0984ZM63.3515 4.73471V20.4679H59.9134V4.73471H63.3515Z" fill="white"/>
<path d="M75.1498 4.67024H77.703C78.5695 4.67024 79.4267 4.67024 80.2655 4.72551C81.1043 4.78078 81.897 4.80841 82.6251 4.8821L82.4684 7.41527H76.4218C76.2664 7.40445 76.1105 7.42497 75.9632 7.47561C75.816 7.52625 75.6804 7.60597 75.5646 7.71003C75.3631 7.9521 75.2609 8.26154 75.2788 8.57591V16.5807C75.263 16.7469 75.2819 16.9146 75.3342 17.0732C75.3866 17.2317 75.4713 17.3777 75.583 17.5019C75.6971 17.6089 75.8322 17.6912 75.9798 17.7435C76.1273 17.7958 76.2841 17.8171 76.4402 17.8058H82.4869L82.6251 20.2653C81.897 20.3298 81.1135 20.3758 80.2655 20.4127C79.4175 20.4495 78.5695 20.4772 77.703 20.4864H75.1498C74.2551 20.5253 73.3811 20.2109 72.7164 19.6113C72.4096 19.3155 72.1689 18.9583 72.0101 18.563C71.8512 18.1677 71.7778 17.7433 71.7946 17.3176V7.83899C71.7747 7.41161 71.8466 6.98492 72.0056 6.58768C72.1646 6.19043 72.407 5.83186 72.7164 5.53612C73.382 4.93894 74.2563 4.62785 75.1498 4.67024ZM72.1818 11.0538H81.602V13.5225H72.1818V11.0538Z" fill="white"/>
<path d="M90.4692 4.73471V20.4679H86.985V4.73471H90.4692ZM96.313 10.7775V13.3935H90.3309V10.7775H96.313ZM99.5484 4.73471V20.4679H96.0642V4.73471H99.5484Z" fill="white"/>
<path d="M119.347 18.0269V20.468H103.383V18.0269H119.347ZM106.166 20.2653L105.89 23.867H103.383V20.2653H106.166ZM117.301 4.69788V20.468H113.808V7.17577H111.734C111.557 7.16035 111.379 7.18008 111.209 7.23383C111.04 7.28759 110.883 7.3743 110.748 7.48896C110.509 7.77939 110.382 8.14504 110.388 8.52065C110.296 9.66287 110.185 10.6946 110.065 11.6157C109.946 12.5369 109.798 13.4027 109.623 14.1857C109.458 14.9352 109.245 15.6736 108.987 16.3965C108.724 17.0911 108.416 17.7681 108.065 18.423C107.69 19.1258 107.277 19.8084 106.83 20.468H103.89C104.605 19.1797 105.185 17.8216 105.623 16.4149C106.048 15.0423 106.377 13.6418 106.609 12.2237C106.83 10.8051 106.996 9.37732 107.107 7.94953C107.15 7.06614 107.529 6.23262 108.167 5.61902C108.846 4.99535 109.743 4.66436 110.665 4.69788H117.301ZM119.347 20.2653V23.9499H116.868L116.591 20.3482L119.347 20.2653Z" fill="white"/>
<path d="M126.509 4.67023H129.044C129.911 4.67023 130.768 4.68866 131.616 4.7255C132.455 4.7255 133.247 4.80841 133.975 4.8821L133.819 7.41526H127.772C127.617 7.40391 127.461 7.42418 127.313 7.47485C127.166 7.52551 127.03 7.60552 126.915 7.71003C126.709 7.94971 126.606 8.26092 126.629 8.57591V16.5807C126.616 16.7368 126.635 16.8939 126.684 17.0426C126.733 17.1913 126.812 17.3287 126.915 17.4466C127.028 17.5546 127.163 17.6375 127.311 17.6899C127.459 17.7422 127.616 17.7629 127.772 17.7506H133.819L133.975 20.2745C133.247 20.339 132.455 20.385 131.616 20.4219C130.777 20.4587 129.911 20.4864 129.044 20.4956H126.491C125.599 20.534 124.728 20.2196 124.067 19.6205C123.76 19.3244 123.52 18.967 123.361 18.5718C123.202 18.1766 123.129 17.7524 123.145 17.3268V7.83899C123.125 7.41161 123.197 6.98492 123.356 6.58767C123.515 6.19042 123.757 5.83185 124.067 5.53611C124.397 5.23841 124.783 5.0087 125.202 4.86013C125.621 4.71155 126.065 4.64702 126.509 4.67023ZM123.514 11.0538H132.925V13.5225H123.514V11.0538Z" fill="white"/>
<path d="M144.391 4.50443C145.558 4.46344 146.723 4.61914 147.839 4.96501C148.227 5.09371 148.586 5.29958 148.893 5.57025C149.201 5.84092 149.45 6.17082 149.627 6.54017C150.032 7.52937 150.214 8.5954 150.161 9.66287C150.21 10.7276 150.038 11.7909 149.654 12.7856C149.493 13.144 149.262 13.4664 148.973 13.7338C148.685 14.0012 148.346 14.2081 147.977 14.3423C146.96 14.6737 145.893 14.8234 144.824 14.7845C144.124 14.7845 143.442 14.7845 142.778 14.6923C142.114 14.6002 141.478 14.5634 140.935 14.4713C140.391 14.3792 139.856 14.2778 139.451 14.1857C139.157 14.1274 138.872 14.0314 138.603 13.9002L138.676 12.1684H144.327C144.801 12.1816 145.275 12.1162 145.728 11.975C145.896 11.9076 146.047 11.8054 146.173 11.6752C146.298 11.545 146.395 11.3898 146.456 11.2196C146.623 10.731 146.698 10.2157 146.677 9.69972C146.699 9.17166 146.624 8.64404 146.456 8.14297C146.393 7.97161 146.296 7.81473 146.171 7.68176C146.046 7.54879 145.895 7.44247 145.728 7.36921C145.269 7.2107 144.784 7.13886 144.299 7.15734H140.695C139.69 7.15734 139.017 7.15734 138.667 7.24946L138.326 4.74393C138.962 4.67024 139.561 4.61497 140.17 4.58734C140.778 4.5597 141.34 4.53207 142.013 4.52286L144.391 4.50443ZM141.82 4.73472V20.468H138.326V4.73472H141.82Z" fill="white"/>
<path d="M157.803 4.73471V20.4679H154.318V4.73471H157.803ZM163.646 10.7775V13.3935H157.618V10.7775H163.646ZM166.882 4.73471V20.4679H163.398V4.73471H166.882Z" fill="white"/>
<path d="M179.454 4.73471C179.73 4.72858 180 4.81643 180.22 4.98382C180.439 5.15121 180.595 5.3882 180.662 5.65585L185.271 20.4679H181.713L178.45 8.90751C178.385 8.64959 178.321 8.38246 178.265 8.11532C178.21 7.84819 178.155 7.59948 178.109 7.35998H177.491C177.445 7.59948 177.39 7.8574 177.344 8.11532C177.297 8.37325 177.224 8.64959 177.15 8.90751L173.933 20.4679H170.348L174.956 5.64664C175.023 5.38125 175.179 5.14699 175.399 4.98342C175.619 4.81814 175.888 4.73066 176.164 4.73471H179.454ZM181.869 13.6975V16.3136H173.703V13.6975H181.869Z" fill="white"/>
<path d="M194.092 4.50443H196.47C197.124 4.50443 197.723 4.50443 198.267 4.56891C198.811 4.63339 199.392 4.65181 200 4.7255L199.687 7.23103C199.336 7.18497 198.673 7.15734 197.714 7.13892H194.165C193.699 7.11895 193.233 7.18772 192.792 7.34157C192.632 7.40524 192.486 7.49985 192.363 7.61999C192.239 7.74012 192.141 7.88341 192.073 8.04164C191.912 8.49027 191.84 8.96576 191.861 9.44179C191.848 9.89788 191.913 10.3529 192.055 10.7867C192.114 10.9533 192.205 11.1065 192.324 11.2377C192.443 11.3689 192.586 11.4755 192.746 11.5512C193.181 11.7276 193.65 11.8093 194.119 11.7907H199.502L199.567 14.3607H198.645H197.585H194.175C193.793 14.3406 193.415 14.444 193.096 14.6555C192.79 14.9432 192.584 15.3206 192.506 15.7332L191.345 20.4311H187.658L189.031 15.6595C189.117 15.1861 189.316 14.7404 189.612 14.3607C189.847 14.0633 190.142 13.8185 190.478 13.6422C190.768 13.4914 191.079 13.3858 191.4 13.329V13.2001C190.759 13.1459 190.146 12.9129 189.63 12.5276C189.197 12.1645 188.877 11.685 188.709 11.1459C188.51 10.5366 188.413 9.89846 188.423 9.25756C188.356 8.29065 188.54 7.3228 188.957 6.44805C189.373 5.75215 190.029 5.23149 190.801 4.98343C191.863 4.63965 192.976 4.47771 194.092 4.50443ZM200 4.73472V20.4679H196.516V4.73472H200Z" fill="white"/>
<path d="M67.186 30.3979L66.9094 32.9956H59.9134V46.1035H56.3739V30.3979C57.2956 30.3335 58.2174 30.2966 59.1391 30.269H61.7845C62.7063 30.269 63.628 30.269 64.5498 30.269C65.4715 30.269 66.3011 30.315 67.186 30.3979ZM62.3284 36.846C63.4994 36.8041 64.6695 36.9502 65.7941 37.2789C66.5761 37.5033 67.2382 38.0261 67.6376 38.7343C68.0492 39.612 68.2451 40.5752 68.2091 41.5439C68.2361 42.365 68.1207 43.1846 67.8681 43.9665C67.6732 44.5417 67.3065 45.0433 66.8173 45.4035C66.2822 45.7614 65.6748 45.9973 65.0383 46.0943C64.2099 46.2327 63.3709 46.2974 62.5312 46.2878H60.319C59.6553 46.2878 59.0009 46.2878 58.3833 46.2325L56.4661 46.1128L56.8071 43.6533C57.1574 43.6533 57.821 43.6533 58.8165 43.6533C59.812 43.6533 60.9734 43.6533 62.3284 43.6533C62.8176 43.6706 63.3063 43.6084 63.7755 43.4691C63.9378 43.4139 64.0857 43.3233 64.2085 43.2038C64.3313 43.0842 64.4258 42.9389 64.4853 42.7782C64.6218 42.3496 64.6872 41.9015 64.6788 41.4517C64.696 40.975 64.6337 40.4987 64.4945 40.0424C64.436 39.8816 64.343 39.7356 64.222 39.6146C64.1009 39.4937 63.9548 39.4007 63.7939 39.3423C63.3245 39.1738 62.8267 39.0987 62.3284 39.1212H56.7979V36.846H62.3284Z" fill="white"/>
<path d="M85.4365 30.3979V46.1035H82.0998V36.7631C82.0998 36.4131 82.0998 36.0538 82.1458 35.7038C82.1919 35.3537 82.2288 34.9945 82.2841 34.6444H82.1458C82.026 35.0037 81.8878 35.3629 81.7403 35.7038C81.5928 36.0446 81.4269 36.3854 81.261 36.717L75.8503 46.1035H72.4583V30.3979H75.7858V39.6094C75.7858 39.9595 75.7674 40.3187 75.7305 40.6872C75.7305 41.0649 75.6475 41.4333 75.6015 41.8202H75.7121C75.8503 41.4517 75.9978 41.0925 76.1637 40.7425C76.3296 40.3924 76.4863 40.0608 76.6707 39.7476L82.0352 30.3979H85.4365Z" fill="white"/>
<path d="M96.5896 30.1492C97.7533 30.1087 98.9156 30.2644 100.028 30.6098C100.425 30.7324 100.793 30.9344 101.11 31.2036C101.427 31.4728 101.686 31.8035 101.871 32.1757C102.27 33.1667 102.452 34.2314 102.406 35.2984C102.454 36.364 102.278 37.4278 101.89 38.4211C101.73 38.7818 101.499 39.1065 101.211 39.3757C100.923 39.6448 100.583 39.8528 100.212 39.9871C99.1984 40.318 98.1344 40.4676 97.0689 40.4292C96.3683 40.4292 95.677 40.4292 95.0134 40.3371C94.3497 40.245 93.7229 40.199 93.1699 40.1068C92.6168 40.0147 92.1007 39.9226 91.6859 39.8305C91.3949 39.7726 91.1129 39.6766 90.8471 39.5449L90.9116 37.8132H96.5711C97.054 37.8178 97.534 37.7399 97.9906 37.5829C98.2902 37.4289 98.5182 37.1647 98.6266 36.846C98.7861 36.3526 98.8578 35.835 98.8386 35.3169C98.8577 34.7927 98.786 34.2691 98.6266 33.7693C98.5611 33.5991 98.4621 33.4437 98.3355 33.3124C98.2088 33.181 98.0571 33.0764 97.8892 33.0048C97.4334 32.8464 96.952 32.7745 96.4697 32.7929H92.8657C91.861 32.7929 91.1881 32.7929 90.8287 32.885L90.5153 30.3979C91.1605 30.3242 91.7596 30.269 92.3587 30.2413C92.9579 30.2137 93.5294 30.1861 94.2022 30.1769L96.5896 30.1492ZM94.0179 30.3979V46.1035H90.5153V30.3979H94.0179Z" fill="white"/>
<path d="M109.273 30.3979C109.614 31.5033 109.927 32.4613 110.194 33.2535C110.408 33.9255 110.67 34.5812 110.978 35.2155C111.181 35.657 111.48 36.0474 111.854 36.3578C112.194 36.6119 112.609 36.7449 113.033 36.7354V39.1489C112.599 39.1325 112.171 39.2516 111.808 39.4897C111.413 39.7877 111.097 40.1764 110.886 40.6227C110.552 41.3116 110.265 42.0225 110.029 42.7506C109.724 43.6717 109.356 44.7771 108.913 46.122H105.226C105.595 44.9429 105.908 43.9112 106.148 43.0361C106.379 42.2794 106.65 41.5353 106.959 40.8069C107.193 40.262 107.503 39.7533 107.881 39.2962C108.18 38.9103 108.561 38.5956 108.996 38.3751C109.493 38.1445 110.027 38.0011 110.572 37.9514V37.8132C110.051 37.7571 109.543 37.6139 109.07 37.3895C108.65 37.1722 108.289 36.856 108.019 36.4683C107.697 36.0269 107.431 35.5473 107.226 35.0405C106.996 34.4786 106.756 33.797 106.517 33.0232C106.277 32.2494 105.991 31.3467 105.669 30.315L109.273 30.3979ZM114.693 36.7354V39.1489H112.37V36.717L114.693 36.7354ZM117.255 30.3979V34.8195C117.252 35.3345 117.212 35.8486 117.135 36.3578C117.062 36.871 116.932 37.3745 116.748 37.8592C116.886 38.329 117.006 38.7804 117.108 39.3054C117.199 39.7574 117.248 40.2169 117.255 40.678V46.1035H113.918V40.678C113.923 40.2157 113.978 39.7554 114.084 39.3054C114.186 38.808 114.305 38.329 114.425 37.8592C114.257 37.3702 114.131 36.868 114.047 36.3578C113.962 35.8494 113.919 35.3349 113.918 34.8195V30.3979H117.255ZM118.776 36.7354V39.1489H116.499V36.717L118.776 36.7354ZM125.357 30.3979C125.035 31.4296 124.758 32.3323 124.518 33.1061C124.279 33.8799 124.03 34.5615 123.799 35.1234C123.596 35.6324 123.326 36.1125 122.997 36.5512C122.719 36.9351 122.357 37.2502 121.937 37.4724C121.463 37.6955 120.956 37.8387 120.435 37.8961V38.0343C120.983 38.0867 121.519 38.2299 122.02 38.458C122.46 38.6758 122.845 38.9908 123.145 39.3791C123.523 39.8362 123.833 40.3449 124.067 40.8898C124.376 41.6182 124.647 42.3623 124.878 43.119C125.154 43.9941 125.468 45.0258 125.8 46.2049H122.113C121.67 44.86 121.301 43.727 120.997 42.8335C120.761 42.1054 120.474 41.3945 120.14 40.7056C119.929 40.2593 119.612 39.8706 119.218 39.5726C118.855 39.3345 118.427 39.2154 117.992 39.2318V36.8183C118.418 36.8322 118.834 36.6988 119.172 36.4407C119.543 36.1295 119.839 35.7392 120.039 35.2985C120.354 34.665 120.622 34.0092 120.841 33.3364C121.117 32.5442 121.431 31.5862 121.762 30.4808L125.357 30.3979Z" fill="white"/>
<path d="M137.183 30.3979C137.459 30.3925 137.728 30.4801 137.948 30.6466C138.168 30.8102 138.324 31.0445 138.391 31.3099L142.999 46.122H139.441L136.225 34.5707C136.169 34.3128 136.105 34.0457 136.049 33.7786C135.994 33.5114 135.93 33.2627 135.884 33.014H135.275C135.229 33.2627 135.174 33.5114 135.118 33.7786C135.072 34.0468 135.008 34.3115 134.925 34.5707L131.708 46.122H128.122L132.731 31.3099C132.805 31.0453 132.964 30.8123 133.183 30.6466C133.402 30.4788 133.672 30.391 133.948 30.3979H137.183ZM139.607 39.3515V41.9768H131.441V39.3331L139.607 39.3515Z" fill="white"/>
<path d="M0 6.8165C0.244614 6.98228 0.475766 7.16709 0.691308 7.36919C4.59336 11.4345 8.48312 15.5183 12.3606 19.6205C12.5542 19.8247 12.7357 20.04 12.9044 20.2653L14.1488 19.1967V26.3633L3.83445 16.5807C3.83445 18.0361 3.83445 19.5652 3.83445 21.0851C3.83445 21.297 4.12941 21.518 4.31376 21.7023C7.37395 24.5855 10.3788 27.4963 13.4206 30.3979C13.6753 30.6179 13.876 30.8935 14.0071 31.2033C14.1381 31.5132 14.1961 31.8491 14.1764 32.185C14.1764 36.192 14.1764 40.199 14.1764 44.206V45.4219C13.5312 44.7863 13.0519 44.3257 12.591 43.8559L0 31.0427V6.8165ZM3.81602 25.7001C3.81602 26.741 3.81602 27.9845 3.81602 29.2281C3.85001 29.6671 4.03575 30.0807 4.34141 30.3979C6.03742 32.1297 7.7703 33.8246 9.49396 35.5195C10.0562 36.0722 10.6369 36.5973 11.3375 37.2697C11.3375 35.7866 11.3375 34.5063 11.3375 33.2351C11.3297 33.0291 11.2478 32.8329 11.107 32.6824C8.68283 30.3242 6.24021 28.0029 3.81602 25.7001Z" fill="#5CB803"/>
<path d="M30.5189 0L33.2842 2.35814H5.53046L8.08369 0H30.5189Z" fill="#5CB803"/>
<path d="M24.7304 45.3113C24.7304 44.86 24.675 44.6021 24.675 44.3902C24.675 40.2358 24.675 36.0999 24.675 31.9178C24.7106 31.4041 24.9298 30.9202 25.2926 30.5545C28.3989 27.5332 31.5513 24.5578 34.676 21.5549C34.8699 21.3918 34.9951 21.1615 35.0262 20.9101C35.0262 19.427 35.0262 17.944 35.0262 16.2122L24.7304 26.7133V19.252L25.8733 20.2653L38.7777 6.7244V7.82977C38.7777 15.3003 38.7777 22.78 38.7777 30.2598C38.7948 30.6892 38.6647 31.1117 38.409 31.4573C34.0308 35.9248 29.6432 40.3464 25.265 44.8047C25.1451 44.9337 25.0069 45.0442 24.7304 45.3113ZM27.4956 37.021L27.9012 37.3158L34.7774 30.1124C34.8695 30.0111 35.0262 29.8821 35.0262 29.7623C35.0262 28.2977 35.0262 26.8331 35.0262 25.7461C32.6942 27.9477 30.2239 30.2598 27.7813 32.5903C27.6129 32.7498 27.5109 32.9669 27.4956 33.1982C27.4495 34.5063 27.4587 35.7867 27.4587 37.0578L27.4956 37.021Z" fill="#5CB803"/>
<path d="M20.1677 49.7421V9.76419H23.4952C23.4952 10.0497 23.5413 10.3629 23.5413 10.6853C23.5413 22.4392 23.5413 34.19 23.5413 45.9377C23.5527 46.1997 23.5047 46.4609 23.401 46.7017C23.2973 46.9426 23.1404 47.1569 22.9422 47.3287C22.0757 48.1853 21.2738 49.1065 20.4442 50.0092L20.1677 49.7421Z" fill="#5CB803"/>
<path d="M18.61 49.9263C17.5132 48.8209 16.4716 47.7892 15.4853 46.7575C15.3286 46.5514 15.2473 46.2978 15.2549 46.039C15.2549 34.058 15.2549 22.083 15.2549 10.1142C15.2549 10.0221 15.2549 9.93919 15.3102 9.79181H18.6192L18.61 49.9263Z" fill="#5CB803"/>
<path d="M3.8621 7.03758L3.75149 8.68643L0.0645142 4.19122H38.7778L34.8511 8.66801L34.7313 7.03758H3.8621Z" fill="#5CB803"/>
</g>
<defs>
<clipPath id="clip0_3:3">
<rect width="200" height="50" fill="white"/>
</clipPath>
</defs>
</svg>
