<svg width="39" height="51" viewBox="0 0 39 51" fill="none" xmlns="http://www.w3.org/2000/svg">
<path d="M0 6.81651C0.244614 6.98229 0.475766 7.1671 0.691308 7.3692C4.59336 11.4345 8.48312 15.5183 12.3606 19.6205C12.5542 19.8247 12.7357 20.04 12.9044 20.2653L14.1488 19.1968V26.3633L3.83445 16.5807C3.83445 18.0361 3.83445 19.5652 3.83445 21.0851C3.83445 21.297 4.12941 21.5181 4.31376 21.7023C7.37395 24.5855 10.3788 27.4963 13.4206 30.3979C13.6753 30.6179 13.876 30.8935 14.0071 31.2033C14.1381 31.5132 14.1961 31.8491 14.1764 32.185C14.1764 36.192 14.1764 40.199 14.1764 44.206V45.4219C13.5312 44.7863 13.0519 44.3257 12.591 43.8559L0 31.0427V6.81651ZM3.81602 25.7001C3.81602 26.741 3.81602 27.9845 3.81602 29.2281C3.85001 29.6671 4.03575 30.0807 4.34141 30.3979C6.03742 32.1297 7.7703 33.8246 9.49396 35.5195C10.0562 36.0722 10.6369 36.5973 11.3375 37.2697C11.3375 35.7867 11.3375 34.5063 11.3375 33.2351C11.3297 33.0291 11.2478 32.8329 11.107 32.6824C8.68283 30.3242 6.24021 28.0029 3.81602 25.7001Z" fill="#5CB803"/>
<path d="M30.5189 0L33.2842 2.35814H5.53046L8.08369 0H30.5189Z" fill="#5CB803"/>
<path d="M24.7304 45.3113C24.7304 44.86 24.6751 44.6021 24.6751 44.3902C24.6751 40.2358 24.6751 36.0999 24.6751 31.9178C24.7106 31.4041 24.9298 30.9202 25.2926 30.5545C28.3989 27.5332 31.5513 24.5578 34.676 21.5549C34.87 21.3918 34.9951 21.1615 35.0263 20.9101C35.0263 19.427 35.0263 17.944 35.0263 16.2122L24.7304 26.7133V19.252L25.8733 20.2653L38.7778 6.7244V7.82978C38.7778 15.3003 38.7778 22.78 38.7778 30.2598C38.7948 30.6892 38.6647 31.1117 38.4091 31.4573C34.0308 35.9248 29.6433 40.3464 25.265 44.8047C25.1452 44.9337 25.0069 45.0442 24.7304 45.3113ZM27.4956 37.021L27.9012 37.3158L34.7774 30.1124C34.8696 30.0111 35.0263 29.8821 35.0263 29.7623C35.0263 28.2977 35.0263 26.8331 35.0263 25.7461C32.6943 27.9477 30.224 30.2598 27.7814 32.5903C27.6129 32.7498 27.5109 32.9669 27.4956 33.1982C27.4495 34.5063 27.4587 35.7867 27.4587 37.0578L27.4956 37.021Z" fill="#5CB803"/>
<path d="M20.1678 49.7421V9.76418H23.4953C23.4953 10.0497 23.5413 10.3629 23.5413 10.6853C23.5413 22.4392 23.5413 34.19 23.5413 45.9377C23.5527 46.1997 23.5048 46.4609 23.401 46.7017C23.2973 46.9426 23.1404 47.1569 22.9422 47.3287C22.0758 48.1853 21.2738 49.1065 20.4443 50.0092L20.1678 49.7421Z" fill="#5CB803"/>
<path d="M18.61 49.9263C17.5131 48.8209 16.4716 47.7892 15.4853 46.7576C15.3286 46.5514 15.2473 46.2978 15.2549 46.0391C15.2549 34.058 15.2549 22.083 15.2549 10.1142C15.2549 10.0221 15.2549 9.9392 15.3102 9.79182H18.6192L18.61 49.9263Z" fill="#5CB803"/>
<path d="M3.86211 7.03759L3.7515 8.68644L0.0645206 4.19123H38.7778L34.8511 8.66802L34.7313 7.03759H3.86211Z" fill="#5CB803"/>
</svg>
