<?xml version="1.0" standalone="no"?>
<!DOCTYPE svg PUBLIC "-//W3C//DTD SVG 20010904//EN"
 "http://www.w3.org/TR/2001/REC-SVG-20010904/DTD/svg10.dtd">
<svg version="1.0" xmlns="http://www.w3.org/2000/svg"
 width="816.000000pt" height="816.000000pt" viewBox="0 0 816.000000 816.000000"
 preserveAspectRatio="xMidYMid meet">
<metadata>
Created by potrace 1.14, written by Peter Selinger 2001-2017
</metadata>
<g transform="translate(0.000000,816.000000) scale(0.100000,-0.100000)"
fill="#000000" stroke="none">
<path d="M2209 8119 c-24 -22 -84 -77 -133 -122 -49 -45 -120 -112 -159 -148
l-71 -66 2217 0 c1219 0 2217 1 2217 3 0 1 -84 73 -186 160 -103 88 -201 171
-218 186 l-31 28 -1796 0 -1796 0 -44 -41z"/>
<path d="M980 7483 c0 -5 13 -22 28 -39 15 -18 70 -85 122 -149 52 -65 100
-123 105 -129 21 -23 251 -304 295 -360 23 -30 30 -34 31 -20 0 11 2 42 5 69
2 28 5 77 7 109 3 54 6 61 28 66 30 7 4907 6 4914 -2 3 -3 8 -49 10 -104 9
-154 11 -159 44 -115 13 16 36 44 53 63 16 18 53 60 81 92 29 33 61 69 72 81
11 13 43 49 70 81 28 32 57 65 65 74 14 15 208 236 238 273 14 16 -133 17
-3076 17 -1701 0 -3092 -3 -3092 -7z"/>
<path d="M960 5133 l0 -1939 181 -185 c99 -101 361 -368 582 -592 221 -225
512 -521 647 -659 404 -413 847 -858 853 -858 3 0 5 498 4 1108 l-2 1107 -28
60 c-29 63 -66 101 -412 430 -81 77 -191 183 -245 235 -54 52 -163 156 -240
230 -78 74 -175 167 -215 205 -40 39 -132 126 -205 195 -73 69 -172 163 -220
210 l-86 85 0 367 c0 254 3 365 10 361 6 -3 27 -21 46 -39 19 -18 62 -59 96
-91 33 -32 128 -122 210 -200 82 -78 174 -165 204 -193 30 -28 127 -120 215
-203 87 -84 197 -188 244 -232 46 -44 103 -98 126 -120 23 -22 104 -99 181
-172 76 -72 177 -168 223 -212 47 -44 87 -78 90 -75 8 7 7 1115 0 1120 -6 3
-59 -40 -157 -128 l-34 -30 -29 35 c-15 19 -57 64 -91 100 -35 35 -119 125
-188 198 -69 73 -165 175 -215 227 -49 52 -110 116 -135 142 -25 26 -110 116
-190 200 -80 84 -165 174 -190 200 -25 26 -122 128 -216 226 -95 99 -191 199
-214 224 -42 45 -336 352 -446 465 -33 34 -80 78 -106 99 l-48 38 0 -1939z
m654 -1125 c18 -18 104 -100 190 -183 222 -211 241 -229 446 -425 101 -96 220
-211 266 -255 45 -44 113 -110 152 -147 115 -111 106 -75 107 -443 0 -176 -1
-328 -3 -338 -5 -19 1 -25 -366 333 -488 475 -781 776 -806 825 -25 50 -25 52
-28 358 -2 169 -1 307 3 307 3 0 20 -15 39 -32z"/>
<path d="M7138 7061 c-1 -5 -78 -87 -169 -183 -92 -95 -186 -194 -210 -219
-38 -40 -123 -130 -409 -430 -30 -32 -125 -131 -211 -221 -86 -90 -171 -179
-189 -198 -18 -19 -105 -111 -195 -205 -90 -93 -186 -195 -215 -225 -29 -30
-119 -125 -201 -211 -81 -85 -168 -177 -192 -203 l-44 -47 -34 28 c-19 15 -47
40 -64 55 -60 53 -78 68 -84 68 -5 0 -7 -1168 -2 -1177 1 -2 236 235 556 562
888 906 1084 1105 1087 1105 2 0 3 -172 3 -382 -1 -439 5 -409 -96 -505 -34
-32 -89 -84 -123 -116 -33 -32 -113 -109 -177 -170 -64 -62 -189 -182 -279
-267 -196 -187 -225 -214 -470 -450 -460 -443 -470 -453 -500 -553 -9 -28 -12
-310 -11 -1075 2 -1145 2 -1122 14 -1122 9 0 96 88 789 791 240 244 561 570
713 724 739 749 701 709 726 780 18 55 21 3855 2 3855 -6 0 -13 -4 -15 -9z
m-573 -3343 c-1 -217 -4 -330 -12 -343 -6 -11 -26 -34 -45 -51 -18 -17 -91
-93 -163 -169 -71 -76 -152 -161 -180 -190 -27 -28 -119 -124 -204 -213 -84
-89 -177 -186 -205 -215 -28 -29 -114 -119 -190 -199 -126 -133 -141 -145
-160 -135 -56 32 -53 17 -51 347 2 353 2 350 92 436 50 47 181 171 348 329 63
60 309 292 375 355 32 30 107 100 165 155 59 55 134 126 168 158 33 31 61 57
61 57 1 0 1 -145 1 -322z"/>
<path d="M3408 6582 c-6 -7 -8 -15 -5 -18 3 -3 2 -16 -3 -28 -4 -12 -5 -29 0
-37 4 -7 4 -38 1 -66 -4 -29 -5 -53 -2 -53 8 0 5 -266 -3 -285 -3 -8 -1 -15 5
-15 6 0 8 -4 5 -8 -6 -9 -7 -66 -5 -199 1 -50 -2 -96 -5 -102 -4 -6 -2 -11 4
-11 6 0 9 -4 6 -8 -6 -9 -7 -66 -5 -199 1 -50 -2 -96 -5 -102 -4 -6 -2 -11 4
-11 6 0 9 -4 6 -8 -6 -9 -7 -66 -5 -199 1 -50 -2 -96 -5 -102 -4 -6 -3 -11 1
-11 5 0 6 -25 3 -55 -3 -30 -3 -60 0 -66 4 -6 4 -28 0 -49 -4 -21 -4 -44 0
-51 4 -8 4 -38 1 -66 -4 -29 -5 -53 -2 -53 8 0 5 -426 -3 -446 -3 -8 -1 -14 5
-14 6 0 8 -4 5 -8 -5 -9 -6 -40 -6 -226 0 -66 -2 -122 -5 -124 -2 -3 -1 -12 4
-21 5 -9 5 -40 2 -68 -4 -29 -5 -53 -2 -53 8 0 5 -266 -3 -285 -3 -8 -1 -15 5
-15 6 0 8 -4 5 -8 -6 -9 -7 -66 -5 -199 1 -50 -2 -96 -5 -102 -4 -6 -3 -11 1
-11 5 0 6 -25 3 -55 -3 -30 -3 -60 0 -66 4 -6 4 -28 0 -49 -4 -21 -4 -44 0
-51 4 -8 4 -38 1 -66 -4 -29 -5 -53 -2 -53 8 0 5 -426 -3 -446 -3 -8 -1 -14 5
-14 6 0 8 -4 5 -8 -5 -9 -6 -40 -6 -226 0 -66 -2 -122 -5 -124 -2 -3 -1 -12 4
-21 5 -9 5 -40 2 -68 -4 -29 -5 -53 -2 -53 3 0 5 -17 4 -37 -5 -132 -6 -161
-1 -169 3 -5 2 -33 -1 -61 -4 -29 -5 -53 -2 -53 8 0 5 -426 -3 -446 -3 -8 -1
-14 5 -14 6 0 8 -4 5 -8 -12 -20 -7 -340 6 -382 6 -20 41 -66 82 -108 239
-248 435 -441 439 -435 2 5 5 1447 5 3206 1 2505 -1 3197 -11 3198 -7 0 -124
1 -260 2 -191 2 -251 -1 -259 -11z"/>
<path d="M4189 6586 c0 -6 -2 -1444 -2 -3195 l-2 -3184 21 -24 21 -25 59 62
c33 35 70 75 84 90 86 95 133 146 215 230 53 55 102 116 116 145 l24 50 0
2898 c1 1594 -1 2913 -3 2931 l-4 33 -264 0 c-184 0 -264 -3 -265 -11z"/>
</g>
</svg>
