<svg width="33" height="32" viewBox="0 0 33 32" fill="none" xmlns="http://www.w3.org/2000/svg">
<path d="M16.6454 31.2904C14.7281 31.2946 12.8258 30.9558 11.0297 30.2904C7.59726 28.9977 4.72765 26.5567 2.91637 23.389C1.10509 20.2214 0.465829 16.5258 1.10898 12.9404C1.13604 12.7894 1.2223 12.6552 1.3489 12.5671C1.47549 12.479 1.6321 12.4442 1.78447 12.4704C1.86047 12.4824 1.93325 12.5095 1.99851 12.5499C2.06376 12.5904 2.12016 12.6435 2.16436 12.7059C2.20855 12.7684 2.23964 12.8391 2.25578 12.9137C2.27193 12.9883 2.27279 13.0654 2.25833 13.1404C1.6386 16.6557 2.35037 20.2741 4.2569 23.3005C6.16343 26.3269 9.13023 28.5478 12.5873 29.5364C16.0443 30.5251 19.7478 30.2118 22.9861 28.6567C26.2245 27.1017 28.7692 24.4146 30.1315 21.1117C31.4938 17.8087 31.5775 14.123 30.3665 10.7626C29.1556 7.40219 26.7354 4.60414 23.5709 2.90604C20.4065 1.20794 16.721 0.729569 13.2225 1.56283C9.72411 2.3961 6.6595 4.48223 4.61752 7.42041C4.57405 7.48371 4.51838 7.53784 4.4537 7.57968C4.38903 7.62152 4.31664 7.65024 4.24071 7.66419C4.16479 7.67813 4.08683 7.67703 4.01134 7.66093C3.93585 7.64483 3.86432 7.61407 3.80088 7.57041C3.73819 7.52745 3.68474 7.47255 3.64364 7.40891C3.60254 7.34527 3.57461 7.27416 3.56148 7.19971C3.54834 7.12527 3.55026 7.04897 3.56713 6.97527C3.584 6.90157 3.61548 6.83193 3.65973 6.77041C5.03961 4.78121 6.86537 3.13616 8.9938 1.96428C11.1222 0.792402 13.4955 0.125566 15.9273 0.0160786C18.3592 -0.0934091 20.7836 0.357429 23.0103 1.33323C25.237 2.30903 27.2055 3.78326 28.7614 5.64028C30.3173 7.4973 31.4183 9.68661 31.9779 12.0365C32.5376 14.3864 32.5408 16.8329 31.9873 19.1842C31.4337 21.5355 30.3384 23.7276 28.7874 25.5886C27.2363 27.4496 25.2716 28.9289 23.0475 29.9104C21.0356 30.8136 18.8537 31.2839 16.6454 31.2904V31.2904Z" fill="#58AF00"/>
<path d="M13.9737 23.0905C13.8943 23.0917 13.8155 23.0763 13.7426 23.0453C13.6696 23.0143 13.6041 22.9683 13.5502 22.9105L6.99689 16.0005C6.8873 15.8917 6.82574 15.7442 6.82574 15.5905C6.82574 15.4367 6.8873 15.2892 6.99689 15.1805C7.05049 15.1254 7.11471 15.0817 7.18573 15.0518C7.25675 15.0219 7.33311 15.0065 7.41026 15.0065C7.48741 15.0065 7.56377 15.0219 7.63478 15.0518C7.7058 15.0817 7.77002 15.1254 7.82362 15.1805L13.8728 21.5805L25.4067 8.40046C25.5107 8.29749 25.6499 8.23714 25.7968 8.23141C25.9436 8.22567 26.0872 8.27499 26.1991 8.36953C26.3109 8.46407 26.3828 8.59691 26.4003 8.74162C26.4179 8.88633 26.3799 9.03229 26.2939 9.15046L14.3669 22.8905C14.3142 22.9538 14.248 23.0046 14.1729 23.0392C14.0979 23.0738 14.0161 23.0913 13.9333 23.0905H13.9737Z" fill="#58AF00"/>
</svg>
